<?xml version="1.0" encoding="utf-8"?>
<svg width="85" height="17" viewBox="0 0 85 17" fill="none" xmlns="http://www.w3.org/2000/svg">
<g style="mix-blend-mode:luminosity">
<path fill-rule="evenodd" clip-rule="evenodd" d="M29.8635 10.406C27.6528 10.3182 23.8359 10.745 23.0192 8.11243C22.6232 6.32724 22.5735 4.47337 23.1678 2.71092C23.7621 1.15451 25.7644 0.539521 27.3981 0.516331C27.3981 0.516331 36.1199 0.0101648 37.8733 1.06308C39.4256 1.9947 39.8539 3.30628 39.755 4.81676C39.6807 4.93093 39.7796 4.97686 39.7053 5.06828H35.3978C35.3978 4.55542 35.0008 4.31193 34.4075 4.19821C32.3777 3.96943 29.8274 3.87801 27.7976 4.26689C27.3108 4.38328 27.1714 4.56925 27.0798 4.88499C27.0586 5.3702 26.9809 5.68594 27.1787 6.1435C27.6244 6.73842 28.5153 6.80754 29.2828 6.83029C31.6348 6.99039 34.2097 6.83029 36.6355 6.96809C36.6355 6.96809 39.5022 7.08359 39.9282 9.07393C40.4482 11.1338 40.5717 13.8114 39.235 15.597C38.2693 16.5813 36.883 16.7191 35.5213 16.8328C32.1046 16.9697 29.9755 16.9015 26.4599 16.8092C25.2719 16.6723 24.009 16.398 23.3651 15.3901C22.7959 14.4059 22.7708 13.3529 22.7216 12.1854H26.9303C26.9698 12.6225 27.171 12.9373 27.7228 13.1242C28.9041 13.538 32.1292 13.3525 34.2835 13.3298C34.8778 13.2843 35.5709 13.1929 35.7938 12.597C35.9173 12.0485 35.9597 11.306 35.5734 10.9907C35.242 10.7213 35.1088 10.406 29.8635 10.406Z" fill="#747C83"/>
<path d="M83.1102 5.35463C83.5236 5.35463 83.8979 5.19989 84.168 4.95015V4.9497C84.4386 4.69951 84.606 4.35389 84.606 3.97215C84.606 3.5904 84.4381 3.24433 84.168 2.99459V2.99415C84.0292 2.8656 83.8643 2.76369 83.6828 2.69427C83.5012 2.62485 83.3066 2.5893 83.1102 2.58966C82.6977 2.58966 82.3234 2.74441 82.0533 2.99415L82.0523 2.99459C81.9136 3.12299 81.8036 3.27542 81.7286 3.44316C81.6536 3.61089 81.6151 3.79065 81.6153 3.97215C81.6153 4.35434 81.7832 4.69996 82.0533 4.9497C82.3234 5.19989 82.6977 5.35463 83.1102 5.35463ZM84.3426 5.11158C84.1809 5.26136 83.9888 5.38013 83.7773 5.4611C83.5658 5.54207 83.3391 5.58363 83.1102 5.58341C82.6297 5.58341 82.1937 5.40324 81.8777 5.11158V5.11114C81.7159 4.96155 81.5875 4.78395 81.4999 4.58848C81.4123 4.39301 81.3672 4.18351 81.3672 3.97192C81.3672 3.76034 81.4123 3.55083 81.4999 3.35536C81.5875 3.15989 81.7159 2.98229 81.8777 2.83271L81.8787 2.83226C82.0401 2.68236 82.232 2.56346 82.4434 2.4824C82.6547 2.40135 82.8814 2.35975 83.1102 2.35999C83.3391 2.3597 83.5659 2.40128 83.7774 2.48233C83.9889 2.56339 84.181 2.68231 84.3426 2.83226L84.3436 2.83271C84.5055 2.98226 84.6339 3.15986 84.7216 3.35533C84.8092 3.5508 84.8543 3.76033 84.8543 3.97192C84.8543 4.18352 84.8092 4.39305 84.7216 4.58852C84.6339 4.78399 84.5055 4.96158 84.3436 5.11114L84.3426 5.11158Z" fill="gray"/>
<path fill-rule="evenodd" clip-rule="evenodd" d="M44.3103 1.31506C41.3645 2.41347 41.488 5.96111 41.4634 8.36441C41.5869 11.3626 41.3645 14.8875 44.5583 16.3075C47.0087 17.1307 49.7568 16.9024 52.4305 16.9702C54.3036 16.9702 56.441 16.9024 57.9513 15.8945C59.2879 15.0253 59.6839 13.5826 59.6839 12.1868H55.401C54.634 13.5376 52.7581 13.468 51.3553 13.468C49.8518 13.468 47.4718 13.5255 46.2904 12.4619C45.7459 11.867 45.7459 11.0081 45.8447 10.2522H59.8069C59.6579 7.00199 60.3279 2.66544 56.8862 1.17771C55.346 0.417337 52.8869 0.345093 51.2154 0.345093C46.2967 0.345093 44.3103 1.31506 44.3103 1.31506ZM55.4878 6.96765H45.7386C45.7642 6.12077 45.9441 5.04555 46.835 4.61073C48.0082 4.0836 51.2159 4.0836 53.4204 4.2446C53.9394 4.28384 55.1463 4.61742 55.3706 5.48348C55.3711 5.48348 55.4878 5.82777 55.4878 6.96765ZM79.0853 10.4471C78.8629 9.39503 77.7241 8.7078 76.6595 8.52451C77.2538 8.36441 77.7983 8.04376 78.1698 7.56301C79.0366 6.02979 78.9623 3.85527 78.219 2.29886C77.7245 1.36055 76.8211 0.736648 75.5828 0.736648C74.0971 0.736648 61.5082 0.742446 61.5082 0.742446V16.6214H74.2457C75.4835 16.6214 76.7058 16.6526 77.6006 16.146C79.531 14.8425 79.382 12.4842 79.0853 10.4471ZM72.4923 6.99129H65.7618V4.2446L73.0962 4.2388C74.0648 4.2388 74.4642 4.8083 74.4642 5.48928C74.4358 6.50563 74.1676 6.73932 73.7961 6.87668C73.7961 6.87668 73.199 6.99129 72.4923 6.99129ZM73.2641 12.9654H65.7439V10.2312H72.9925C73.3017 10.2312 74.0855 10.2058 74.5385 10.5162C75.0831 10.9283 75.0267 11.78 74.8853 12.2791C74.8853 12.2791 74.7618 12.9694 73.2641 12.9654Z" fill="#747C83"/>
<path fill-rule="evenodd" clip-rule="evenodd" d="M0.0786133 16.6255H21.0019L10.3618 0.0293579L0.0786133 16.6255Z" fill="gray"/>
<path fill-rule="evenodd" clip-rule="evenodd" d="M82.6294 3.35087H83.2174C83.2994 3.35087 83.3655 3.36201 83.4142 3.38431C83.5063 3.42668 83.5517 3.50651 83.5517 3.62335C83.5517 3.73216 83.5189 3.80753 83.4537 3.84901C83.3877 3.89093 83.2984 3.91189 83.186 3.91189H82.6294V3.35087ZM82.6294 4.80159V4.09741H83.1778C83.2758 4.09741 83.3486 4.10722 83.3934 4.12773C83.4745 4.1643 83.5179 4.2361 83.5237 4.34314L83.5377 4.61696C83.5406 4.68118 83.5454 4.72444 83.5497 4.74673C83.5546 4.76903 83.5608 4.78732 83.5686 4.80159H83.8633V4.76457C83.8266 4.74941 83.801 4.71596 83.7861 4.66379C83.7756 4.61788 83.7699 4.57112 83.7692 4.5242L83.7605 4.30434C83.7567 4.2089 83.7369 4.13977 83.7022 4.09741C83.6612 4.05059 83.6071 4.01498 83.5459 3.99439C83.6206 3.95987 83.6843 3.90791 83.7306 3.84365C83.7773 3.77079 83.8003 3.68702 83.7967 3.60239C83.7967 3.41375 83.7128 3.28486 83.5459 3.2144C83.4581 3.17783 83.3462 3.15955 83.2116 3.15955H82.3892V4.80114H82.6294V4.80159Z" fill="gray"/>
</g>
</svg>
