<?xml version="1.0" encoding="utf-8"?>
<svg width="130" height="15" viewBox="0 0 130 15" fill="none" xmlns="http://www.w3.org/2000/svg">
<g style="mix-blend-mode:luminosity" clip-path="url(#clip0)">
<path d="M4.78386 0C1.558 0 0.491699 2.62361 0.491699 3.95409C0.491699 7.67089 3.63333 8.0783 4.20615 8.25218C6.49257 8.97066 7.9206 8.92272 7.9206 10.874C7.9206 12.0638 6.96314 12.9798 5.85695 12.9798C3.98805 12.9798 2.783 11.6508 2.55514 9.75631H0.615387V14.6562H2.59651V13.7535C3.58538 14.6114 4.78725 15 6.06338 15C8.58105 15 10.3969 13.2137 10.3969 10.5302C10.3969 7.43052 8.59251 6.7222 6.72382 6.14622C4.85344 5.57377 2.968 5.28501 2.968 3.91123C2.968 2.68194 3.78523 1.97716 4.90797 1.97716C5.67237 1.97716 6.28635 2.27785 6.76519 2.75065C7.22239 3.20799 7.56248 3.8423 7.71439 4.59878H9.61298V0.300915H7.5907V1.20344C6.84433 0.465733 5.85207 0 4.78386 0ZM18.4863 0C15.1861 0 11.5114 2.34501 11.5114 7.39251C11.5114 11.68 14.5605 15 18.5276 15C21.5239 15 23.916 13.3187 24.7184 9.88556H22.4485C21.6841 11.4723 20.5896 12.5933 18.5276 12.5933C15.609 12.5933 13.9877 10.2242 13.9877 7.47868C13.9877 4.71764 15.6484 2.36401 18.5276 2.36401C19.3101 2.36401 20.1093 2.64085 20.7563 3.09465C21.4051 3.53652 21.9285 4.13305 22.1182 4.94278H24.0993V0.300915H22.1182V1.2463C21.0105 0.156423 18.9237 0 18.4863 0ZM26.1216 0.300694V2.27763H27.6073V12.7219H26.1216V14.6562H31.5696V12.7219H30.0838V8.16623H34.9953V12.7219H33.5507V14.6562H38.9573V12.7219H37.4716V2.27785H38.9573V0.300915H33.5507V2.27785H34.9953V5.88816H30.0838V2.27785H31.5696V0.300915H26.1216V0.300694ZM43.5796 0.300694V2.27763H45.1067L41.681 12.7219H40.5254V14.6562H45.478V12.7219H43.9922L44.9416 9.9282H49.1101L50.0593 12.7219H48.5322V14.6562H53.6087V12.7219H52.577L49.234 2.27785H50.7197V0.300915H43.5796V0.300694ZM55.631 0.300694V2.27763H57.1167V12.7219H55.631V14.6562H66.2378V10.3579H64.0504V12.7219H59.593V8.16623H63.4314V5.88816H59.593V2.27785H64.0504V4.12598H66.2378V0.300915H55.631V0.300694ZM68.7968 0.300694V2.27763H70.2826V12.7219H68.7968V14.6562H74.3687V12.7219H72.7591V8.16623H76.8862V5.88816H72.7591V2.27785H77.3814V4.12598H79.5689V0.300915H68.7968V0.300694ZM81.2197 0.300694V2.27763H82.7057V12.7219H81.2197V14.6562H86.7916V12.7219H85.182V8.16623H89.3091V5.88816H85.182V2.27785H89.8045V4.12598H91.9918V0.300915H81.2197V0.300694ZM94.1378 0.300694V2.27763H95.7062V12.7219H94.1378V14.6562H103.63V10.401H101.443V12.7219H98.1823V2.27785H99.8745V0.300915H94.1378V0.300694ZM105.034 0.300694V2.27763H106.478V12.7219H105.034V14.6562H115.641V10.3579H113.453V12.7219H108.954V8.16623H112.793V5.88816H108.954V2.27785H113.453V4.12598H115.641V0.300915H105.034V0.300694ZM117.828 0.300694V2.27763H119.314V12.7219H117.828V14.6562H123.317V12.7219H121.79V8.16623H123.276C124.289 8.16623 125.67 8.27979 125.67 9.62728V14.6562H129.508V12.7219H128.146V9.45561C128.146 8.58225 128.017 7.57302 126.454 7.17754V7.13446C127.902 6.50015 128.6 5.5804 128.6 3.91101C128.6 3.69272 128.653 2.7659 128.022 1.93385C126.727 0.140736 124.71 0.300694 123.771 0.300694H117.828ZM121.79 2.27785H123.111C124.405 2.27785 126.165 2.27431 126.165 4.04003C126.165 5.97079 124.772 6.18908 123.4 6.18908H121.79V2.27785H121.79ZM47.0465 3.13729H47.0878L48.6149 7.95126H45.4782L47.0465 3.13729Z" fill="gray"/>
</g>
<defs>
<clipPath id="clip0">
<rect width="130" height="15" fill="gray"/>
</clipPath>
</defs>
</svg>
