<?xml version="1.0" encoding="utf-8"?>
<svg width="82" height="13" viewBox="0 0 82 13" fill="none" xmlns="http://www.w3.org/2000/svg">
<g style="mix-blend-mode:luminosity" clip-path="url(#clip0)">
<path d="M70.2349 12.6891C71.0783 12.6891 71.7659 12.3282 72.287 11.8134C72.33 11.771 72.69 11.4526 73.1358 10.9751C73.4153 10.7362 73.7376 10.5398 74.1405 10.4974H74.8282C75.2686 10.577 75.6716 10.699 76.0369 10.8582L79.5827 12.291C79.5827 12.291 80.4691 12.6891 81.1942 12.6891H81.7209C81.882 12.6891 82.0001 12.5672 82.0001 12.4079V11.097C82.0001 10.2213 81.4789 9.38302 80.5926 8.98489L79.7868 8.66647C79.1422 8.42778 78.4544 7.99261 78.0945 7.63167C78.0945 7.63167 77.3692 6.79852 78.2128 6.00256L81.3555 2.85561C81.7583 2.41511 82.0001 1.858 82.0001 1.30073C82.0001 1.30073 82.0001 1.06188 81.9196 0.865563C81.882 0.706432 81.7583 0.547149 81.6778 0.467584C81.4789 0.265927 81.1942 0.14917 80.8719 0.14917H80.3508C79.545 0.14917 78.8198 0.504775 78.2933 1.02485L75.634 3.65157L72.7705 6.51729V1.97993C72.7705 0.98232 71.9271 0.14917 70.8795 0.14917H70.0737C69.8695 0.14917 69.5472 0.14917 69.4291 0.228735C69.3054 0.265927 69.3054 0.425057 69.3054 0.547302V12.4079C69.3054 12.567 69.4289 12.6891 69.5901 12.6891H70.2349ZM55.2408 11.1766C55.2032 11.1766 54.5586 10.9749 53.2261 9.94013C52.5439 9.42539 52.0603 9.02741 51.8186 8.86813C52.0604 8.709 52.8662 8.39058 53.5915 7.5521C54.0321 7.03736 54.2737 6.40054 54.2737 5.60458C54.2737 4.84566 54.0749 4.12911 53.6291 3.49244C53.1885 2.81324 52.6245 2.21878 51.9369 1.74109C51.2116 1.26354 50.4487 0.865563 49.5623 0.584188C48.7135 0.266079 47.8701 0.14917 47.0211 0.14917H41.8638C41.7027 0.14917 41.579 0.265927 41.579 0.425057V12.291C41.579 12.4079 41.579 12.5298 41.7027 12.6095C41.8638 12.6891 42.2238 12.6891 42.428 12.6891C42.7072 12.6891 43.0295 12.6891 43.3144 12.5672C43.7548 12.4502 44.1202 12.1318 44.3994 11.771C44.8883 11.1342 45.0066 10.4178 45.0066 9.66424V4.52725C45.0066 4.44768 45.0066 4.2884 45.0496 4.17164C45.0871 4.0497 45.1677 3.93294 45.1677 3.93294C45.5331 3.25359 46.86 2.9777 48.3107 3.33331C50.2445 3.81085 50.8086 5.12688 50.61 5.68414C50.368 6.2786 49.6804 6.63939 48.837 6.63939C48.3912 6.63939 47.9882 6.59686 47.5478 6.43773C47.5478 6.43773 47.2629 6.35816 47.0641 6.27845C46.9406 6.27845 46.7418 6.16169 46.6183 6.16169C46.4571 6.16169 46.3765 6.27845 46.3765 6.51729V7.87051C46.3765 8.31102 46.5807 8.74619 46.86 8.98489L51.0505 12.2486C51.4533 12.5298 51.8993 12.6891 52.3827 12.6891H55.1225C55.3215 12.6891 55.402 12.5672 55.402 12.3282V11.495C55.402 11.3359 55.3213 11.2138 55.2408 11.1766ZM38.4793 9.42539H34.81C34.2888 9.42539 33.8053 9.30345 33.3218 9.10698C32.9565 8.94785 32.3549 8.42778 32.1507 8.23145C31.8284 7.87051 31.549 7.43534 31.3878 6.9578C31.1836 6.4801 31.0655 5.96003 31.0655 5.4453C31.0655 4.80847 31.2643 4.2884 31.6672 3.93294C31.7101 3.89042 31.8713 3.77366 32.0324 3.65157C32.2314 3.53497 32.4354 3.49244 32.5965 3.45525C32.7955 3.41287 33.0371 3.37568 33.2788 3.37568C33.5636 3.37568 33.8053 3.41287 34.0041 3.45525C34.4455 3.544 34.8686 3.70548 35.2558 3.93294C35.82 4.2884 36.4217 4.84566 36.8245 5.36573H32.9995C32.7577 5.36573 32.6342 5.48249 32.6342 5.68414C32.6342 6.08212 32.7148 6.32097 32.876 6.63939C33.0371 6.9578 33.7624 8.07217 35.2558 8.07217H38.8392C39.4462 8.07217 39.8868 7.91304 40.1284 7.59463C40.3703 7.23369 40.4508 6.9578 40.4508 6.51729C40.4508 5.8009 40.2521 5.08451 39.8493 4.33092C39.4838 3.572 38.9627 2.8928 38.2751 2.25598C37.6305 1.61915 36.8675 1.1416 36.0187 0.743471C35.1323 0.345797 34.2083 0.14917 33.2788 0.14917H27.9978C27.8797 0.14917 27.7562 0.265927 27.7562 0.425057V5.56205C27.7562 6.55982 27.9173 7.47254 28.3203 8.31102C28.6856 9.18654 29.212 9.94013 29.8568 10.577C30.5014 11.2138 31.2643 11.7339 32.1131 12.1318C32.9995 12.4874 33.9236 12.6891 34.8905 12.6891H40.1715C40.3326 12.6891 40.4509 12.5672 40.4509 12.4502V11.3729C40.4509 10.7786 40.252 10.3011 39.9297 9.94013C39.5645 9.62171 39.081 9.42539 38.4793 9.42539ZM26.5903 1.97993C26.5903 0.98232 25.7415 0.14917 24.6939 0.14917H22.7223C22.6418 0.14917 22.5611 0.186361 22.4806 0.228735L18.4889 3.93294C17.162 5.20645 15.3087 5.88031 13.294 5.88031C11.1934 5.88031 9.30228 5.12673 7.93238 3.77351C7.93238 3.77351 5.03143 1.06189 4.98841 1.02469C4.42429 0.504775 3.66138 0.14917 2.77495 0.14917H0.395096C0.347835 0.14915 0.301033 0.158333 0.257364 0.176195C0.213695 0.194057 0.174015 0.220247 0.140589 0.25327C0.107164 0.286293 0.0806485 0.325502 0.062558 0.368656C0.0444675 0.41181 0.0351562 0.458064 0.0351563 0.504775V10.8582C0.0351563 11.8931 0.878716 12.6891 1.88867 12.6891H3.13489C3.18296 12.6895 3.23062 12.6804 3.2751 12.6624C3.31958 12.6444 3.36 12.6178 3.39398 12.5842C3.42797 12.5506 3.45486 12.5107 3.47307 12.4667C3.49128 12.4228 3.50046 12.3757 3.50007 12.3282V8.66663C3.50007 7.67435 4.306 6.87823 5.23006 6.87823C7.0458 6.87823 8.29217 8.39074 9.46328 9.42554C10.871 10.6567 11.9616 11.8506 13.2938 11.8506C14.6637 11.8506 15.749 10.6567 17.1619 9.42554C18.3277 8.39074 19.5794 6.87823 21.3522 6.87823C22.3192 6.87823 23.1251 7.67435 23.1251 8.62959V10.8583C23.1251 11.8933 23.9686 12.6892 24.9786 12.6892H26.225C26.273 12.6896 26.3207 12.6806 26.3652 12.6626C26.4097 12.6446 26.4501 12.618 26.4841 12.5844C26.5181 12.5508 26.5449 12.5109 26.5632 12.4669C26.5814 12.4229 26.5906 12.3758 26.5902 12.3283L26.5903 1.97993ZM67.8549 7.43534H65.9639C65.2386 7.43534 64.7928 7.75391 64.5509 8.34806C64.4328 8.74619 64.2286 9.06445 63.9063 9.3033C63.6269 9.54215 63.2241 9.66424 62.7405 9.66424C62.2946 9.66424 61.854 9.54215 61.3706 9.26626C60.9247 9.02741 60.5218 8.709 60.1618 8.31102C59.7535 7.91304 59.474 7.43534 59.2324 6.9578C59.0282 6.43773 58.9101 5.96003 58.9101 5.4453C58.9101 4.84566 59.0712 4.33092 59.4742 3.96998C59.8341 3.57216 60.323 3.37568 60.8871 3.37568C61.5693 3.37568 62.214 3.61453 62.8587 4.09207C63.1004 4.2884 63.3852 4.36796 63.6645 4.36796C63.9868 4.36796 64.2717 4.20883 64.6315 3.89042L65.9208 2.61676C66.0015 2.5372 66.0445 2.45763 66.0015 2.37807C66.0015 2.33554 65.9209 2.25598 65.8403 2.17641C65.1581 1.53958 64.3898 1.02485 63.5464 0.663906C62.6976 0.308301 61.8112 0.14917 60.8871 0.14917H55.7243C55.5631 0.14917 55.445 0.265927 55.445 0.467584V5.56205C55.445 6.55982 55.6438 7.47254 56.0466 8.34806C56.4495 9.22373 56.976 10.0197 57.6583 10.699C58.3461 11.3359 59.1519 11.893 60.0383 12.2911C60.8871 12.6889 61.8112 12.8854 62.7405 12.8854C63.5034 12.8854 64.191 12.7687 64.8356 12.4874C65.4803 12.2486 66.0445 11.893 66.528 11.4525C67.0115 11.0175 67.3716 10.4602 67.6561 9.82337C67.9355 9.22373 68.0967 8.50734 68.1397 7.79095C68.1772 7.5521 68.0591 7.43534 67.8549 7.43534Z" fill="gray"/>
</g>
<defs>
<clipPath id="clip0">
<rect width="82" height="13" fill="gray"/>
</clipPath>
</defs>
</svg>
