<?xml version="1.0" encoding="utf-8"?>
<svg width="105" height="22" viewBox="0 0 105 22" fill="none" xmlns="http://www.w3.org/2000/svg">
<g style="mix-blend-mode:luminosity" clip-path="url(#clip0)">
<path d="M40.5882 2.40996C40.5311 1.46284 39.748 0.815186 38.7233 0.815186C37.5779 0.815186 36.4901 1.99443 36.6159 3.46931C36.6159 4.35347 37.2766 5.24037 38.4248 5.24037C39.7485 5.23982 40.7123 3.76823 40.5882 2.40996Z" fill="gray"/>
<path d="M101.807 8.77747C96.1464 8.77747 94.9418 17.1001 94.0356 17.1001C92.5291 17.1001 93.0121 10.4319 91.926 10.4319C90.9617 10.4319 90.4787 11.5548 90.3585 12.0825C89.5743 15.1516 87.3483 19.579 83.9703 19.579C83.1888 19.579 81.8025 19.2828 81.8025 18.5153C81.8025 17.6881 87.1051 17.5736 87.1051 13.6187C87.1051 12.1439 85.7216 10.0761 83.6729 10.0761C80.9612 10.0761 78.3126 12.9683 78.3126 16.9807C78.3126 20.577 80.5961 21.7629 82.8869 21.7629C86.8642 21.7629 89.2774 18.57 90.5408 15.9175C91.1456 17.6875 91.5006 21.7629 93.0116 21.7629C93.613 21.7629 94.0351 21.4667 94.7618 19.8725C96.564 15.9175 98.3114 11.3736 100.725 11.3736C101.626 11.3736 101.086 12.9678 103.254 12.9678C104.279 12.9678 105 12.1433 105 11.194C105 9.83846 103.735 8.77747 101.807 8.77747ZM82.8869 12.4406C84.1531 12.4406 84.517 13.9116 84.2151 14.7985C83.9121 15.6827 82.8305 16.6851 81.1412 16.9807C80.7801 16.0938 80.5978 12.4406 82.8869 12.4406ZM76.2013 9.07584C74.8122 9.07584 73.7886 10.6701 73.7886 12.5555C73.7886 14.2697 74.209 14.3874 74.209 15.5688C74.209 17.157 73.3683 19.2226 72.3414 19.2226C69.936 19.2226 69.3311 9.89978 67.8839 9.89978C67.0443 9.89978 66.6194 10.9022 66.3785 11.6101C65.0503 15.3329 63.2459 19.4022 59.8119 19.4022C59.145 19.4022 58.3663 19.1038 57.9415 18.6949C60.3502 17.2194 61.9753 15.6827 61.9753 13.7983C61.9753 12.1991 60.8964 9.77988 59.026 9.77988C56.6782 9.77988 53.9642 13.2662 53.9642 17.3946C53.9581 17.9727 54.0402 18.5492 54.2079 19.1038C54.0268 19.3431 53.3018 19.637 52.6997 19.637C51.0708 19.637 49.3496 17.9437 49.1451 16.9451C50.3553 14.3824 52.7825 11.407 52.3364 4.27728C52.1704 1.57115 50.7259 -0.102461 48.9203 0.00319985C46.4574 0.151016 44.2068 5.53044 44.5668 11.2482C44.6378 12.3656 45.1365 15.4402 45.8346 16.9577C44.6121 18.8761 43.0598 19.164 42.1559 19.164C40.8897 19.164 38.9628 18.4545 38.9634 15.5677C39.8695 13.1435 39.2681 10.3739 37.9997 10.3739C36.1924 10.3739 35.591 13.4972 35.5295 15.6838C34.9296 16.9818 34.2633 18.0445 33.3589 18.0445C30.6483 18.0445 30.4079 9.77988 28.4178 9.77988C26.7928 9.77988 23.9967 15.0345 23.1515 15.0345C22.6713 15.0345 22.2437 13.5481 21.9413 12.0842C21.8574 11.678 21.7758 11.1836 21.5058 11.1584C20.9714 11.1102 20.2995 11.5608 20.0524 12.1931C19.8031 12.82 19.3559 14.7914 18.8684 16.5822C18.5749 17.6191 17.8583 19.8035 17.7739 20.6197C17.7107 21.211 17.9634 21.6517 18.5654 21.7141C20.0652 21.8663 25.5848 15.2151 27.3339 15.2151C29.5649 15.2151 30.1021 21.7656 32.6383 21.7656C34.1437 21.7656 35.5289 17.9897 36.4339 17.9897C37.4552 17.9897 37.9371 21.7656 40.831 21.7656C44.4494 21.7656 45.6502 19.4608 46.7369 19.4608C47.638 19.4608 48.6028 21.7054 50.8304 21.7054C52.2168 21.7054 53.4248 21.2937 54.8715 20.3444C55.7122 21.2937 56.7346 21.7661 57.7017 21.7661C63.6651 21.7661 65.3527 16.5083 66.5607 16.5083C67.6407 16.5083 67.4015 21.7059 70.4788 21.7059C74.5746 21.7059 77.3456 14.683 77.3456 10.9044C77.345 9.90087 77.042 9.07584 76.2013 9.07584ZM48.3608 14.0945C48.0002 14.118 47.6156 13.7293 47.4597 11.1924C47.2159 7.30752 47.7693 3.61156 48.9706 3.5393C49.8723 3.48017 50.2815 4.22473 50.3849 5.87206C50.6152 9.52586 49.0249 14.0562 48.3608 14.0945ZM57.103 17.5742C56.8582 17.2736 56.3187 16.5679 56.3187 15.0925C56.3187 13.2043 57.5804 12.6147 58.1254 12.6147C58.7867 12.6147 59.3306 13.4446 59.3306 14.4443C59.3301 15.623 58.846 17.0404 57.103 17.5742ZM14.4126 2.05456C13.5065 2.35184 12.4248 3.40955 12.6641 5.65362C12.8452 6.53614 13.3276 7.71757 13.5065 8.24862C13.8083 9.18917 14.17 10.6679 13.6898 13.7364C13.0883 17.5742 11.6411 20.2283 8.38715 20.1681C6.2199 20.1681 4.22762 18.5142 3.99116 14.2675C3.74688 10.2529 4.05265 8.54151 4.71451 5.00268C5.01525 3.4079 5.13376 2.05292 3.80837 2.29052C2.1241 2.64145 1.64 3.29458 1.09889 5.12093C0.0736809 8.54315 -0.0476223 10.9602 0.0127498 13.3844C0.257033 18.5158 2.60316 21.8822 7.90585 21.9972C14.0509 22.1176 16.5229 16.2701 16.7627 11.4321C16.9449 7.89331 16.8845 5.41875 16.3401 3.53218C15.9214 2.29216 15.4982 1.75783 14.4126 2.05456Z" fill="gray"/>
</g>
<defs>
<clipPath id="clip0">
<rect width="105" height="22" fill="gray"/>
</clipPath>
</defs>
</svg>
