<?xml version="1.0" encoding="utf-8"?>
<svg width="85" height="28" viewBox="0 0 85 28" fill="none" xmlns="http://www.w3.org/2000/svg">
<g style="mix-blend-mode:luminosity">
<path d="M14.1924 8.10632L14.4602 7.84465C15.3343 7.0872 15.8559 6.81176 16.9556 6.495C17.6605 6.28842 18.4922 6.26088 19.1689 6.3022C19.5496 6.32974 19.8456 6.37106 20.1558 6.42614C21.0017 6.55009 21.8475 6.99079 22.6652 7.50035C23.2291 7.84465 23.7367 8.46439 24.0327 8.91887C24.1737 9.11167 24.2442 9.29071 24.3006 9.37334C24.3852 9.51106 24.4416 9.66255 24.498 9.82782C24.7094 10.3649 24.8222 11.0811 24.8504 12.0038V23.0627H20.7479V13.1193C20.7479 12.9678 20.8043 12.4445 20.5928 11.6044C20.3955 10.7781 20.0007 10.5164 20.0007 10.5164C19.5214 10.1308 19.2253 10.0482 18.9011 9.97931C18.5627 9.91045 18.0693 9.89667 17.5759 9.91045C17.0965 9.92422 16.5044 10.1446 16.2648 10.2272C16.0392 10.3236 15.5881 10.5577 15.0382 11.1499C14.5025 11.7283 14.2206 12.8439 14.1924 13.5876V23.0213H10.0758V0.118591H14.1924V8.10632ZM78.8737 9.0979V6.59141H74.8417V23.0351H78.8596V13.8905C78.9301 12.472 79.3249 12.0589 80.1143 11.3703C80.9038 10.6817 82.074 10.4751 82.3136 10.4613C82.5533 10.4338 83.5261 10.3236 84.6116 10.5715V6.46746C83.808 6.30219 82.2431 6.61895 81.9048 6.72913C81.5805 6.8393 80.8474 7.10097 80.1425 7.63807C79.4518 8.14764 79.0288 8.80869 78.8737 9.0979ZM67.8632 19.8676C69.0898 19.2754 69.7242 18.2287 69.8792 17.182H74.1227V17.3335C74.0099 18.7245 73.0654 20.1155 72.3746 20.8867C71.6838 21.6579 70.0625 22.9387 67.7646 23.283C65.4666 23.6411 63.8453 23.1591 63.5352 23.104C63.2391 23.0489 61.4769 22.4429 60.3067 21.3274C59.1507 20.2119 58.5163 18.8347 58.4881 18.6694C58.4599 18.5041 57.8114 17.3748 57.8255 14.5929C57.8396 11.811 58.756 10.1859 58.756 10.1859C59.9543 8.03746 61.3641 7.23869 62.5483 6.72913C63.7325 6.21957 65.6499 5.75132 67.976 6.26088C70.2881 6.78421 71.9093 7.99615 73.0231 9.86913C74.1368 11.7559 74.2073 14.2899 74.0945 15.6947H61.787C61.7729 15.6947 61.7729 17.5677 62.9994 18.9035C64.4233 20.446 66.6226 20.446 67.8632 19.8676ZM61.9844 12.6235L69.9497 12.6373C69.8933 11.6457 69.6114 10.6266 68.0747 9.63501C66.5521 8.64343 64.7476 9.11168 64.0709 9.48352C63.3942 9.86913 62.1959 10.6679 61.9844 12.6235ZM41.6129 23.0351H36.6927V21.5477C35.5084 22.5944 34.3524 22.8974 34.0282 22.9938C33.718 23.0902 32.562 23.3794 31.0535 23.2417C29.5591 23.104 28.53 22.6908 27.4585 21.9471C26.3871 21.2172 25.8655 20.1843 25.5835 18.9862C25.3015 17.788 25.7527 16.5485 26.0205 16.039C26.2884 15.5294 27.3175 14.2762 28.4877 13.9043C29.6578 13.5325 30.405 13.3121 32.2236 12.9954L35.8468 12.2792C36.2697 12.2104 36.453 12.0176 36.5658 11.9074C36.6645 11.7972 36.7491 11.3565 36.7209 10.9571C36.6927 10.5577 36.6927 10.1583 35.9455 9.66255C35.1983 9.18053 33.7885 9.22185 33.7885 9.22185C32.1531 9.26316 31.2932 9.5386 30.7434 10.0619C30.1935 10.5853 30.2499 11.8523 30.2499 11.8523H26.2884C26.3448 10.8056 26.4999 9.55237 27.1202 8.60211C27.7405 7.66562 28.8119 6.86685 30.4473 6.43992C30.4473 6.43992 32.2377 6.09562 33.5206 6.12316C34.8177 6.1507 35.7763 6.23334 36.5799 6.45369C37.3835 6.66027 38.3421 6.90816 39.1175 7.47281L39.2726 7.59676C40.8516 8.80869 40.6542 10.2272 40.6965 10.6817V20.6939C40.6965 21.6166 41.2463 22.5118 41.6129 23.0351ZM36.6927 16.824V14.8959C36.6927 14.8959 35.6494 15.1989 34.874 15.2953C34.0987 15.4055 32.562 15.7635 31.8148 15.9839C31.0676 16.2042 30.5178 16.5485 30.5178 16.5485C29.5732 17.0581 29.6578 18.1598 29.6578 18.1598C29.8129 19.6334 30.8279 19.8813 31.1945 20.0741C31.561 20.2532 33.5206 20.5424 35.1842 19.537C36.8337 18.5317 36.6927 16.824 36.6927 16.824ZM53.3001 6.60518H57.1206V22.5806C57.0642 23.6549 57.0078 24.2195 56.2888 25.2249C56.2888 25.2249 55.2315 26.8499 52.3555 27.3871C52.3555 27.3871 46.7586 28.3098 43.8685 26.5056C43.8685 26.5056 42.0781 25.5967 41.7961 23.2004V23.0213H46.096C46.2229 23.9854 46.8855 25.0183 50.2267 24.9081C53.5679 24.7979 53.286 22.6495 53.286 22.6495V20.5011C53.286 20.5011 51.2982 22.2501 48.4927 22.1537C45.6731 22.0573 43.8685 20.8867 42.5715 19.0413C41.2745 17.2096 41.0067 14.9923 41.3732 12.5133C41.7397 10.0344 42.9945 8.71229 44.2915 7.72071C45.5885 6.72913 47.2943 6.3986 48.8874 6.3986C50.4805 6.3986 52.2709 7.14228 53.286 8.13386V6.60518H53.3001ZM53.3283 14.2073L53.3142 13.9594C53.3142 13.9594 53.3001 12.9678 53.0181 12.1002C52.7502 11.2326 51.9889 10.6266 51.9889 10.6266C49.9447 8.96018 47.6891 9.97931 47.4212 10.0895C47.1675 10.2134 45.3206 10.9571 45.1796 13.8768C45.0387 16.7826 46.7727 18.091 46.7727 18.091C48.4927 19.3718 50.5792 19.0688 51.9044 18.0221C53.2296 17.003 53.3283 15.7084 53.3283 14.2073ZM6.18473 12.3619V9.31825C6.18473 8.50571 5.50803 7.83088 4.66215 7.83088H1.5465C0.714725 7.83088 0.0239258 8.50571 0.0239258 9.31825V12.3619C0.0239258 13.1744 0.714725 13.8492 1.5465 13.8492H4.66215C5.50803 13.8492 6.18473 13.1744 6.18473 12.3619ZM6.18473 21.5477V18.4904C6.18473 17.6778 5.50803 17.003 4.66215 17.003H1.5465C0.714725 17.003 0.0239258 17.6778 0.0239258 18.4904V21.5477C0.0239258 22.3603 0.714725 23.0351 1.5465 23.0351H4.66215C5.50803 23.0351 6.18473 22.3603 6.18473 21.5477Z" fill="gray"/>
</g>
</svg>
